<?xml version="1.0" standalone="no"?><!DOCTYPE svg PUBLIC "-//W3C//DTD SVG 1.1//EN" "http://www.w3.org/Graphics/SVG/1.1/DTD/svg11.dtd"><svg t="1535868079478" class="icon" style="" viewBox="0 0 1024 1024" version="1.1" xmlns="http://www.w3.org/2000/svg" p-id="3227" xmlns:xlink="http://www.w3.org/1999/xlink" width="200" height="200"><defs><style type="text/css"></style></defs><path d="M369.2 776h15.5c9.3 0 15.5-6.2 15.5-15.5v-27.9h223.4v27.9c0 9.3 6.2 15.5 15.5 15.5h15.5c9.3 0 15.5-6.2 15.5-15.5V335.4c0-9.3-6.2-15.5-15.5-15.5H369.2c-9.3 0-15.5 6.2-15.5 15.5v425.1c0 9.3 6.2 15.5 15.5 15.5z m37.2-401.5h217.1v126.7H406.4V374.5z m0 174.9h217.1v132.7H406.4V549.4z m280.5-340.7c18.1 0 30.2-12.1 30.2-24.1V88.1C717.1 73 705 64 686.9 64s-30.2 12-30.2 24.1v96.5c0 15 15.1 24.1 30.2 24.1z m-361.9 0c18.1 0 30.2-12.1 30.2-24.1V88.1C355.2 73 340.1 64 325 64c-18.1 0-30.2 12.1-30.2 24.1v96.5c0.1 15 15.1 24.1 30.2 24.1z m90.5-33.2h180.9c15.1 0 27.1-15.1 27.1-30.2 0-18.1-12.1-30.2-27.1-30.2H415.5c-15.1 0-27.1 15.1-27.1 30.2 3 18.2 15 30.2 27.1 30.2z" p-id="3228"></path><path d="M798.4 112.2h-18.1c-18.1 0-30.2 15.1-30.2 30.2 0 18.1 15.1 33.7 30.2 33.7h18.1c57.3 0 97.7 41.7 97.7 102v509.6c0 57.3-40.4 108-97.7 108H228.5c-57.3 0-100.5-50.7-100.5-108V281.1c0-57.3 43.2-102 100.5-102 18.1 0 30.2-18.7 30.2-33.7 0-18.1-15.1-30.2-30.2-30.2-93.5-3-163.8 72.4-163.8 165.9v509.6c0 93.5 70.3 168.9 163.8 168.9h569.9c93.5 0 161.9-75.4 161.9-168.9V281.1c0.1-93.5-71.4-168.9-161.9-168.9z" p-id="3229"></path></svg>