<?xml version="1.0" standalone="no"?><!DOCTYPE svg PUBLIC "-//W3C//DTD SVG 1.1//EN" "http://www.w3.org/Graphics/SVG/1.1/DTD/svg11.dtd"><svg t="1535874562501" class="icon" style="" viewBox="0 0 1024 1024" version="1.1" xmlns="http://www.w3.org/2000/svg" p-id="2429" xmlns:xlink="http://www.w3.org/1999/xlink" width="200" height="200"><defs><style type="text/css"></style></defs><path d="M938.6752 199.424H534.6816c-9.9072 0-19.6352-2.5856-28.2368-7.4752l-159.7952-91.264a113.9456 113.9456 0 0 0-56.448-14.976H85.3248A85.376 85.376 0 0 0 0 170.9824v682.6752a85.4272 85.4272 0 0 0 85.3248 85.3504h853.3248a85.4272 85.4272 0 0 0 85.3248-85.3504V284.7744a85.4016 85.4016 0 0 0-85.2992-85.3504z m28.4416 654.2336a28.4672 28.4672 0 0 1-28.4416 28.4416H85.3248a28.4416 28.4416 0 0 1-28.4416-28.4416V426.9824h910.208l0.0256 426.6752zM56.9088 370.0992v-199.1168c0-15.6928 12.7488-28.4416 28.4416-28.4416h204.8512c9.9072 0 19.6608 2.5856 28.2624 7.5008l159.744 91.264a114.2784 114.2784 0 0 0 56.4736 15.0016h403.9936c15.6928 0 28.416 12.7488 28.4416 28.4416v85.3248H56.9088z" p-id="2430"></path></svg>