<?xml version="1.0" standalone="no"?><!DOCTYPE svg PUBLIC "-//W3C//DTD SVG 1.1//EN" "http://www.w3.org/Graphics/SVG/1.1/DTD/svg11.dtd"><svg t="1544419274200" class="icon" style="" viewBox="0 0 1024 1024" version="1.1" xmlns="http://www.w3.org/2000/svg" p-id="1233" xmlns:xlink="http://www.w3.org/1999/xlink" width="200" height="200"><defs><style type="text/css"></style></defs><path d="M143.057 201.31v582.543h737.886V201.311H143.057z m0-77.671h737.886c42.842 0 77.673 34.83 77.673 77.672v582.542c0 42.841-34.831 77.672-77.673 77.672H143.057c-42.842 0-77.673-34.83-77.673-77.672V201.311c0-42.841 34.831-77.672 77.673-77.672z m-77.673 194.18h873.814v38.836H65.384V317.82z m135.927-77.672h38.836c10.68 0 19.418 8.738 19.418 19.418s-8.738 19.418-19.418 19.418h-38.836c-10.68 0-19.418-8.738-19.418-19.418s8.738-19.418 19.418-19.418z m116.508 0h38.836c10.68 0 19.418 8.738 19.418 19.418s-8.738 19.418-19.418 19.418H317.82c-10.68 0-19.418-8.738-19.418-19.418s8.738-19.418 19.418-19.418z" p-id="1234"></path><path d="M395.249 505.69v36.044L265.876 596.59l129.373 54.856v36.045l-176.462-76.216v-29.37L395.25 505.69z m129.13-27.914h34.224L456.78 721.716H422.19l102.188-243.94z m80.585 27.913l176.462 76.216v29.37L604.964 687.49v-36.045l129.373-54.856-129.373-54.856v-36.045z" p-id="1235"></path></svg>