<?xml version="1.0" standalone="no"?><!DOCTYPE svg PUBLIC "-//W3C//DTD SVG 1.1//EN" "http://www.w3.org/Graphics/SVG/1.1/DTD/svg11.dtd"><svg t="1535868256949" class="icon" style="" viewBox="0 0 1075 1024" version="1.1" xmlns="http://www.w3.org/2000/svg" p-id="4206" xmlns:xlink="http://www.w3.org/1999/xlink" width="209.9609375" height="200"><defs><style type="text/css"></style></defs><path d="M314.624 819.2c-56.32 0-101.888 46.08-101.888 102.4s45.568 102.4 101.888 102.4 102.4-46.08 102.4-102.4-46.08-102.4-102.4-102.4z m-307.2-819.2v102.4h102.4l184.32 388.608-69.12 125.44c-8.192 14.336-12.8 31.232-12.8 49.152 0 56.32 46.08 102.4 102.4 102.4h614.4v-102.4H336.128c-7.168 0-12.8-5.632-12.8-12.8l1.536-6.144 46.08-83.456h381.44c38.4 0 72.192-20.992 89.6-52.736l183.296-332.288a51.3536 51.3536 0 0 0-45.056-75.776H222.976l-48.128-102.4H7.424z m819.2 819.2c-56.32 0-101.888 46.08-101.888 102.4s45.568 102.4 101.888 102.4 102.4-46.08 102.4-102.4-46.08-102.4-102.4-102.4z" p-id="4207"></path></svg>