<?xml version="1.0" standalone="no"?><!DOCTYPE svg PUBLIC "-//W3C//DTD SVG 1.1//EN" "http://www.w3.org/Graphics/SVG/1.1/DTD/svg11.dtd"><svg t="1528881386595" class="icon" style="" viewBox="0 0 1024 1024" version="1.1" xmlns="http://www.w3.org/2000/svg" p-id="2650" xmlns:xlink="http://www.w3.org/1999/xlink" width="200" height="200"><defs><style type="text/css"></style></defs><path d="M675.2 395.2c12.8 0 25.6-12.8 25.6-32 0-12.8-12.8-25.6-25.6-25.6H632l6.4-49.6c0-12.8-6.4-32-25.6-32-12.8 0-25.6 6.4-32 25.6l-6.4 56H468.8l6.4-49.6c6.4-12.8-6.4-32-19.2-32-19.2 0-32 6.4-32 25.6l-12.8 56h-62.4c-12.8 0-25.6 12.8-25.6 25.6 0 19.2 12.8 32 25.6 32h56L392 500.8h-43.2c-12.8 0-25.6 12.8-25.6 25.6S336 552 348.8 552h36.8l-6.4 49.6c-6.4 12.8 6.4 32 19.2 32 12.8 0 32-6.4 32-25.6l6.4-56H544l-6.4 49.6c0 12.8 12.8 32 25.6 32s25.6-6.4 32-25.6l6.4-56h75.2c12.8 0 25.6-12.8 25.6-25.6s-12.8-25.6-25.6-25.6h-62.4l12.8-105.6h48z m-120 107.2H449.6l12.8-105.6H568l-12.8 105.6zM848 64H176c-62.4 0-112 49.6-112 110.4V712c0 60.8 38.4 115.2 99.2 115.2h232L512 960l116.8-132.8h232c62.4 0 99.2-54.4 99.2-115.2V174.4C960 113.6 910.4 64 848 64z m52.8 648c0 22.4-11.2 56-40 56H601.6L584 788.8l-72 80-70.4-81.6-19.2-19.2H163.2c-28.8 0-40-33.6-40-56V174.4c0-27.2 24-49.6 52.8-49.6h672c28.8 0 52.8 22.4 52.8 49.6V712z" p-id="2651"></path></svg>