<?xml version="1.0" standalone="no"?><!DOCTYPE svg PUBLIC "-//W3C//DTD SVG 1.1//EN" "http://www.w3.org/Graphics/SVG/1.1/DTD/svg11.dtd"><svg t="1541752493006" class="icon" style="" viewBox="0 0 1024 1024" version="1.1" xmlns="http://www.w3.org/2000/svg" p-id="1808" xmlns:xlink="http://www.w3.org/1999/xlink" width="200" height="200"><defs><style type="text/css"></style></defs><path d="M877.8 648.2V80.4c0-15.9-12.9-28.8-28.8-28.8H28.8C12.9 51.5 0 64.4 0 80.4v567.8C0 664.1 12.9 677 28.8 677h106.4v97.3l-0.1 86.8 0.1-0.1v0.1l30.6-34.5 133-149.6H849c16-0.1 28.8-13 28.8-28.8z m-81.6-28H272.4l-0.1-0.1-0.1 0.1h-0.3v0.3l-79.2 89v-89.4l-111.3 0.1c-13.1 0-23.6-3.4-23.6-16.3V124.6c0-13.1 10.5-16.3 23.6-16.3h714.8c13.1 0 23.6 3.4 23.6 16.3v479.3c0 13-10.5 16.3-23.6 16.3z" fill="" p-id="1809"></path><path d="M995.2 342.3h-58v58.1h7.4c11.9 0 21.7 2.6 21.7 14.5v327.5c0 11.9-9.7 14.5-21.7 14.5H815.1l0.1 96.6-122.5-96.6H440.9c-11.9 0-21.7-2.6-21.7-14.5v-12.1h-59.1v56.1c0 15.9 12.9 28.8 28.8 28.8h284.5l199.5 157.2V815.2h122.2c15.9 0 28.8-12.9 28.8-28.8V371.1c0-15.9-12.8-28.8-28.7-28.8z" fill="" p-id="1810"></path></svg>